<mxfile host="Electron" modified="2023-06-16T22:44:54.683Z" agent="Mozilla/5.0 (Windows NT 10.0; Win64; x64) AppleWebKit/537.36 (KHTML, like Gecko) draw.io/21.4.0 Chrome/112.0.5615.204 Electron/24.5.1 Safari/537.36" etag="78-QJSdbomsZ-_TmZ1wQ" version="21.4.0" type="device">
  <diagram name="Page-1" id="hAiKYa4-dK42ltRqcPiO">
    <mxGraphModel dx="479" dy="276" grid="1" gridSize="10" guides="1" tooltips="1" connect="1" arrows="1" fold="1" page="1" pageScale="1" pageWidth="827" pageHeight="1169" math="0" shadow="0">
      <root>
        <mxCell id="0" />
        <mxCell id="1" parent="0" />
        <mxCell id="eyD7A_Jjde4RJUeQWau_-1" value="" style="endArrow=classic;html=1;rounded=0;endFill=1;" parent="1" edge="1">
          <mxGeometry width="50" height="50" relative="1" as="geometry">
            <mxPoint x="120" y="160" as="sourcePoint" />
            <mxPoint x="120" y="40" as="targetPoint" />
          </mxGeometry>
        </mxCell>
        <mxCell id="eyD7A_Jjde4RJUeQWau_-2" value="" style="endArrow=classic;html=1;rounded=0;endFill=1;" parent="1" edge="1">
          <mxGeometry width="50" height="50" relative="1" as="geometry">
            <mxPoint x="120" y="160" as="sourcePoint" />
            <mxPoint x="300" y="160" as="targetPoint" />
          </mxGeometry>
        </mxCell>
        <mxCell id="eyD7A_Jjde4RJUeQWau_-4" value="I" style="text;html=1;strokeColor=none;fillColor=none;align=center;verticalAlign=middle;whiteSpace=wrap;rounded=0;fontFamily=UGent Panno Text;fontSize=22;" parent="1" vertex="1">
          <mxGeometry x="100" y="30" width="20" height="30" as="geometry" />
        </mxCell>
        <mxCell id="eyD7A_Jjde4RJUeQWau_-5" value="Q" style="text;html=1;strokeColor=none;fillColor=none;align=center;verticalAlign=middle;whiteSpace=wrap;rounded=0;fontFamily=UGent Panno Text;fontSize=22;" parent="1" vertex="1">
          <mxGeometry x="290" y="160" width="20" height="30" as="geometry" />
        </mxCell>
        <mxCell id="eyD7A_Jjde4RJUeQWau_-7" value="" style="endArrow=oval;html=1;rounded=0;fontFamily=UGent Panno Text;fontSize=22;fontColor=default;dashed=1;fillColor=#d5e8d4;strokeColor=#82b366;endFill=1;" parent="1" edge="1">
          <mxGeometry width="50" height="50" relative="1" as="geometry">
            <mxPoint x="120" y="160" as="sourcePoint" />
            <mxPoint x="210" y="120" as="targetPoint" />
          </mxGeometry>
        </mxCell>
        <mxCell id="eyD7A_Jjde4RJUeQWau_-8" value="" style="endArrow=oval;html=1;rounded=0;fontFamily=UGent Panno Text;fontSize=22;fontColor=default;fillColor=#dae8fc;strokeColor=#6c8ebf;endFill=1;dashed=1;" parent="1" edge="1">
          <mxGeometry width="50" height="50" relative="1" as="geometry">
            <mxPoint x="120" y="160" as="sourcePoint" />
            <mxPoint x="240" y="70" as="targetPoint" />
          </mxGeometry>
        </mxCell>
        <mxCell id="eyD7A_Jjde4RJUeQWau_-11" value="" style="endArrow=classicThin;html=1;rounded=0;fontFamily=UGent Panno Text;fontSize=22;fontColor=default;startArrow=none;startFill=0;endFill=1;fillColor=#f8cecc;strokeColor=#b85450;" parent="1" edge="1">
          <mxGeometry width="50" height="50" relative="1" as="geometry">
            <mxPoint x="210" y="120" as="sourcePoint" />
            <mxPoint x="240" y="70" as="targetPoint" />
          </mxGeometry>
        </mxCell>
        <mxCell id="eyD7A_Jjde4RJUeQWau_-14" value="EVM[i]" style="text;html=1;strokeColor=none;fillColor=none;align=center;verticalAlign=middle;whiteSpace=wrap;rounded=0;fontSize=14;fontFamily=UGent Panno Text;fontColor=default;" parent="1" vertex="1">
          <mxGeometry x="250" y="110" width="30" height="20" as="geometry" />
        </mxCell>
        <mxCell id="eyD7A_Jjde4RJUeQWau_-16" value="" style="endArrow=none;dashed=1;html=1;rounded=0;fontFamily=UGent Panno Text;fontSize=22;fontColor=default;entryX=0.5;entryY=0;entryDx=0;entryDy=0;dashPattern=1 1;" parent="1" target="eyD7A_Jjde4RJUeQWau_-17" edge="1">
          <mxGeometry width="50" height="50" relative="1" as="geometry">
            <mxPoint x="150" y="150" as="sourcePoint" />
            <mxPoint x="190" y="180" as="targetPoint" />
          </mxGeometry>
        </mxCell>
        <mxCell id="eyD7A_Jjde4RJUeQWau_-17" value="&lt;font style=&quot;font-size: 16px;&quot;&gt;IQ reference&lt;/font&gt;" style="text;html=1;strokeColor=none;fillColor=none;align=center;verticalAlign=middle;whiteSpace=wrap;rounded=0;fontSize=22;fontFamily=UGent Panno Text;fontColor=default;" parent="1" vertex="1">
          <mxGeometry x="90" y="180" width="70" height="10" as="geometry" />
        </mxCell>
        <mxCell id="eyD7A_Jjde4RJUeQWau_-18" value="&lt;font style=&quot;font-size: 16px;&quot;&gt;IQ measured&lt;/font&gt;" style="text;html=1;strokeColor=none;fillColor=none;align=center;verticalAlign=middle;whiteSpace=wrap;rounded=0;fontSize=22;fontFamily=UGent Panno Text;fontColor=default;" parent="1" vertex="1">
          <mxGeometry x="120" y="70" width="90" height="20" as="geometry" />
        </mxCell>
        <mxCell id="eyD7A_Jjde4RJUeQWau_-19" value="" style="endArrow=none;dashed=1;html=1;rounded=0;fontFamily=UGent Panno Text;fontSize=22;fontColor=default;exitX=0.5;exitY=1;exitDx=0;exitDy=0;dashPattern=1 1;" parent="1" source="eyD7A_Jjde4RJUeQWau_-18" edge="1">
          <mxGeometry width="50" height="50" relative="1" as="geometry">
            <mxPoint x="145" y="80" as="sourcePoint" />
            <mxPoint x="185" y="110" as="targetPoint" />
          </mxGeometry>
        </mxCell>
        <mxCell id="eyD7A_Jjde4RJUeQWau_-20" value="" style="endArrow=none;dashed=1;html=1;rounded=0;fontFamily=UGent Panno Text;fontSize=22;fontColor=default;entryX=0;entryY=0.5;entryDx=0;entryDy=0;dashPattern=1 1;" parent="1" target="eyD7A_Jjde4RJUeQWau_-14" edge="1">
          <mxGeometry width="50" height="50" relative="1" as="geometry">
            <mxPoint x="220" y="110" as="sourcePoint" />
            <mxPoint x="240" y="130" as="targetPoint" />
          </mxGeometry>
        </mxCell>
        <mxCell id="eyD7A_Jjde4RJUeQWau_-21" value="" style="endArrow=none;html=1;rounded=0;fontFamily=UGent Panno Text;fontSize=22;fontColor=default;fillColor=#f5f5f5;strokeColor=#808080;" parent="1" edge="1">
          <mxGeometry width="50" height="50" relative="1" as="geometry">
            <mxPoint x="210" y="170" as="sourcePoint" />
            <mxPoint x="210" y="150" as="targetPoint" />
          </mxGeometry>
        </mxCell>
        <mxCell id="eyD7A_Jjde4RJUeQWau_-22" value="" style="endArrow=none;html=1;rounded=0;fontFamily=UGent Panno Text;fontSize=22;fontColor=default;fillColor=#f5f5f5;strokeColor=#808080;" parent="1" edge="1">
          <mxGeometry width="50" height="50" relative="1" as="geometry">
            <mxPoint x="240" y="170" as="sourcePoint" />
            <mxPoint x="240" y="150" as="targetPoint" />
          </mxGeometry>
        </mxCell>
        <mxCell id="eyD7A_Jjde4RJUeQWau_-23" value="" style="endArrow=classicThin;startArrow=classicThin;html=1;rounded=0;fontFamily=UGent Panno Text;fontSize=22;fontColor=default;fillColor=#f5f5f5;strokeColor=#808080;startFill=1;endFill=1;" parent="1" edge="1">
          <mxGeometry width="50" height="50" relative="1" as="geometry">
            <mxPoint x="210" y="172.94" as="sourcePoint" />
            <mxPoint x="240" y="172.94" as="targetPoint" />
          </mxGeometry>
        </mxCell>
        <mxCell id="eyD7A_Jjde4RJUeQWau_-24" value="I&lt;sub&gt;err&lt;/sub&gt;" style="text;html=1;strokeColor=none;fillColor=none;align=center;verticalAlign=middle;whiteSpace=wrap;rounded=0;fontFamily=UGent Panno Text;fontSize=22;" parent="1" vertex="1">
          <mxGeometry x="210" y="180" width="30" height="30" as="geometry" />
        </mxCell>
        <mxCell id="eyD7A_Jjde4RJUeQWau_-25" value="" style="endArrow=none;html=1;rounded=0;fontFamily=UGent Panno Text;fontSize=22;fontColor=default;fillColor=#f5f5f5;strokeColor=#808080;" parent="1" edge="1">
          <mxGeometry width="50" height="50" relative="1" as="geometry">
            <mxPoint x="130" y="70" as="sourcePoint" />
            <mxPoint x="110" y="70" as="targetPoint" />
          </mxGeometry>
        </mxCell>
        <mxCell id="eyD7A_Jjde4RJUeQWau_-26" value="" style="endArrow=none;html=1;rounded=0;fontFamily=UGent Panno Text;fontSize=22;fontColor=default;fillColor=#f5f5f5;strokeColor=#808080;" parent="1" edge="1">
          <mxGeometry width="50" height="50" relative="1" as="geometry">
            <mxPoint x="130" y="119.89" as="sourcePoint" />
            <mxPoint x="110" y="119.89" as="targetPoint" />
          </mxGeometry>
        </mxCell>
        <mxCell id="eyD7A_Jjde4RJUeQWau_-27" value="" style="endArrow=classicThin;startArrow=classicThin;html=1;rounded=0;fontFamily=UGent Panno Text;fontSize=22;fontColor=default;fillColor=#f5f5f5;strokeColor=#808080;startFill=1;endFill=1;" parent="1" edge="1">
          <mxGeometry width="50" height="50" relative="1" as="geometry">
            <mxPoint x="107" y="120" as="sourcePoint" />
            <mxPoint x="107" y="70" as="targetPoint" />
          </mxGeometry>
        </mxCell>
        <mxCell id="eyD7A_Jjde4RJUeQWau_-28" value="Q&lt;sub&gt;err&lt;/sub&gt;" style="text;html=1;strokeColor=none;fillColor=none;align=center;verticalAlign=middle;whiteSpace=wrap;rounded=0;fontFamily=UGent Panno Text;fontSize=22;" parent="1" vertex="1">
          <mxGeometry x="70" y="80" width="30" height="30" as="geometry" />
        </mxCell>
      </root>
    </mxGraphModel>
  </diagram>
</mxfile>
